<mxfile host="app.diagrams.net" modified="2024-04-05T17:49:47.415Z" agent="Mozilla/5.0 (X11; Linux x86_64) AppleWebKit/537.36 (KHTML, like Gecko) Chrome/123.0.0.0 Safari/537.36" etag="OVa9OT5FvZ0kiQQDA4e0" version="24.2.2" type="device">
  <diagram name="Page-1" id="lqFUlpA5ZFmu7nuexhL0">
    <mxGraphModel dx="2482" dy="2018" grid="0" gridSize="10" guides="1" tooltips="1" connect="1" arrows="1" fold="1" page="0" pageScale="1" pageWidth="827" pageHeight="1169" math="0" shadow="0">
      <root>
        <mxCell id="0" />
        <mxCell id="1" parent="0" />
        <mxCell id="SszrpHAp8e7wIJKEq-xz-4" value="" style="ellipse;whiteSpace=wrap;html=1;aspect=fixed;" parent="1" vertex="1">
          <mxGeometry x="1618" y="309" width="80" height="80" as="geometry" />
        </mxCell>
        <mxCell id="SszrpHAp8e7wIJKEq-xz-5" value="" style="endArrow=classic;html=1;rounded=0;entryX=0;entryY=0;entryDx=0;entryDy=0;" parent="1" target="SszrpHAp8e7wIJKEq-xz-4" edge="1">
          <mxGeometry width="50" height="50" relative="1" as="geometry">
            <mxPoint x="1550" y="240" as="sourcePoint" />
            <mxPoint x="1543" y="340" as="targetPoint" />
          </mxGeometry>
        </mxCell>
        <mxCell id="SszrpHAp8e7wIJKEq-xz-6" value="" style="ellipse;whiteSpace=wrap;html=1;aspect=fixed;" parent="1" vertex="1">
          <mxGeometry x="1824" y="309" width="80" height="80" as="geometry" />
        </mxCell>
        <mxCell id="SszrpHAp8e7wIJKEq-xz-7" value="" style="endArrow=classic;html=1;rounded=0;entryX=0;entryY=0.5;entryDx=0;entryDy=0;exitX=1;exitY=0.5;exitDx=0;exitDy=0;" parent="1" source="SszrpHAp8e7wIJKEq-xz-4" target="SszrpHAp8e7wIJKEq-xz-6" edge="1">
          <mxGeometry width="50" height="50" relative="1" as="geometry">
            <mxPoint x="1841" y="284" as="sourcePoint" />
            <mxPoint x="1834" y="384" as="targetPoint" />
          </mxGeometry>
        </mxCell>
        <mxCell id="SszrpHAp8e7wIJKEq-xz-8" value="/ cli?route(vroute)" style="text;html=1;align=center;verticalAlign=middle;whiteSpace=wrap;rounded=0;" parent="1" vertex="1">
          <mxGeometry x="1715" y="307" width="110" height="30" as="geometry" />
        </mxCell>
        <mxCell id="SszrpHAp8e7wIJKEq-xz-9" value="" style="endArrow=classic;html=1;rounded=0;entryX=0;entryY=0.5;entryDx=0;entryDy=0;exitX=1;exitY=0.5;exitDx=0;exitDy=0;" parent="1" source="SszrpHAp8e7wIJKEq-xz-6" target="SszrpHAp8e7wIJKEq-xz-10" edge="1">
          <mxGeometry width="50" height="50" relative="1" as="geometry">
            <mxPoint x="1912" y="449" as="sourcePoint" />
            <mxPoint x="1962" y="399" as="targetPoint" />
          </mxGeometry>
        </mxCell>
        <mxCell id="SszrpHAp8e7wIJKEq-xz-10" value="" style="ellipse;whiteSpace=wrap;html=1;aspect=fixed;" parent="1" vertex="1">
          <mxGeometry x="2038" y="309" width="80" height="80" as="geometry" />
        </mxCell>
        <mxCell id="SszrpHAp8e7wIJKEq-xz-11" value="[vroute = &quot;/pokemon&quot;] /" style="text;html=1;align=center;verticalAlign=middle;whiteSpace=wrap;rounded=0;" parent="1" vertex="1">
          <mxGeometry x="1908" y="315" width="126" height="30" as="geometry" />
        </mxCell>
        <mxCell id="SszrpHAp8e7wIJKEq-xz-12" value="" style="ellipse;whiteSpace=wrap;html=1;aspect=fixed;" parent="1" vertex="1">
          <mxGeometry x="2038" y="431" width="80" height="80" as="geometry" />
        </mxCell>
        <mxCell id="SszrpHAp8e7wIJKEq-xz-13" value="" style="endArrow=classic;html=1;rounded=0;entryX=0.5;entryY=0;entryDx=0;entryDy=0;exitX=0.5;exitY=1;exitDx=0;exitDy=0;" parent="1" source="SszrpHAp8e7wIJKEq-xz-10" target="SszrpHAp8e7wIJKEq-xz-12" edge="1">
          <mxGeometry width="50" height="50" relative="1" as="geometry">
            <mxPoint x="1912" y="449" as="sourcePoint" />
            <mxPoint x="1962" y="399" as="targetPoint" />
          </mxGeometry>
        </mxCell>
        <mxCell id="SszrpHAp8e7wIJKEq-xz-14" value="" style="ellipse;whiteSpace=wrap;html=1;aspect=fixed;" parent="1" vertex="1">
          <mxGeometry x="2038" y="552" width="80" height="80" as="geometry" />
        </mxCell>
        <mxCell id="SszrpHAp8e7wIJKEq-xz-15" value="" style="endArrow=classic;html=1;rounded=0;entryX=0.5;entryY=0;entryDx=0;entryDy=0;exitX=0.5;exitY=1;exitDx=0;exitDy=0;" parent="1" source="SszrpHAp8e7wIJKEq-xz-12" target="SszrpHAp8e7wIJKEq-xz-14" edge="1">
          <mxGeometry width="50" height="50" relative="1" as="geometry">
            <mxPoint x="2078" y="549" as="sourcePoint" />
            <mxPoint x="1962" y="559" as="targetPoint" />
          </mxGeometry>
        </mxCell>
        <mxCell id="SszrpHAp8e7wIJKEq-xz-16" value="/ type1 = route.query.type1" style="text;html=1;align=center;verticalAlign=middle;whiteSpace=wrap;rounded=0;" parent="1" vertex="1">
          <mxGeometry x="2086" y="395" width="148" height="30" as="geometry" />
        </mxCell>
        <mxCell id="SszrpHAp8e7wIJKEq-xz-17" value="/ type2 = route.query.type2" style="text;html=1;align=center;verticalAlign=middle;whiteSpace=wrap;rounded=0;" parent="1" vertex="1">
          <mxGeometry x="2086" y="516" width="148" height="30" as="geometry" />
        </mxCell>
        <mxCell id="SszrpHAp8e7wIJKEq-xz-19" value="" style="endArrow=classic;html=1;rounded=0;entryX=1;entryY=1;entryDx=0;entryDy=0;exitX=0;exitY=0;exitDx=0;exitDy=0;" parent="1" source="SszrpHAp8e7wIJKEq-xz-14" target="SszrpHAp8e7wIJKEq-xz-4" edge="1">
          <mxGeometry width="50" height="50" relative="1" as="geometry">
            <mxPoint x="1810" y="536" as="sourcePoint" />
            <mxPoint x="1860" y="486" as="targetPoint" />
          </mxGeometry>
        </mxCell>
        <mxCell id="SszrpHAp8e7wIJKEq-xz-20" value=" [type1 == null &amp;amp;&amp;amp; type2 != null] / cli!send(404, {message: &#39;type1 missing&#39;})" style="text;html=1;align=center;verticalAlign=middle;whiteSpace=wrap;rounded=0;" parent="1" vertex="1">
          <mxGeometry x="1673" y="478" width="224" height="30" as="geometry" />
        </mxCell>
        <mxCell id="SszrpHAp8e7wIJKEq-xz-21" value="" style="ellipse;whiteSpace=wrap;html=1;aspect=fixed;" parent="1" vertex="1">
          <mxGeometry x="2300" y="552" width="80" height="80" as="geometry" />
        </mxCell>
        <mxCell id="SszrpHAp8e7wIJKEq-xz-22" value="" style="endArrow=classic;html=1;rounded=0;entryX=0;entryY=0.5;entryDx=0;entryDy=0;exitX=1;exitY=0.5;exitDx=0;exitDy=0;" parent="1" source="SszrpHAp8e7wIJKEq-xz-14" target="SszrpHAp8e7wIJKEq-xz-21" edge="1">
          <mxGeometry width="50" height="50" relative="1" as="geometry">
            <mxPoint x="1810" y="613" as="sourcePoint" />
            <mxPoint x="1860" y="563" as="targetPoint" />
          </mxGeometry>
        </mxCell>
        <mxCell id="SszrpHAp8e7wIJKEq-xz-23" value="[type1 != null || type2 == null] /" style="text;html=1;align=center;verticalAlign=middle;whiteSpace=wrap;rounded=0;" parent="1" vertex="1">
          <mxGeometry x="2121" y="599" width="174" height="30" as="geometry" />
        </mxCell>
        <mxCell id="SszrpHAp8e7wIJKEq-xz-25" value="" style="ellipse;whiteSpace=wrap;html=1;aspect=fixed;" parent="1" vertex="1">
          <mxGeometry x="2300" y="419.5" width="80" height="80" as="geometry" />
        </mxCell>
        <mxCell id="SszrpHAp8e7wIJKEq-xz-26" value="" style="endArrow=classic;html=1;rounded=0;fontSize=12;startSize=8;endSize=8;exitX=0.5;exitY=0;exitDx=0;exitDy=0;entryX=0.5;entryY=1;entryDx=0;entryDy=0;" parent="1" source="SszrpHAp8e7wIJKEq-xz-25" target="SszrpHAp8e7wIJKEq-xz-27" edge="1">
          <mxGeometry width="50" height="50" relative="1" as="geometry">
            <mxPoint x="2295" y="429" as="sourcePoint" />
            <mxPoint x="2345" y="379" as="targetPoint" />
          </mxGeometry>
        </mxCell>
        <mxCell id="SszrpHAp8e7wIJKEq-xz-27" value="" style="ellipse;whiteSpace=wrap;html=1;aspect=fixed;" parent="1" vertex="1">
          <mxGeometry x="2300" y="284" width="80" height="80" as="geometry" />
        </mxCell>
        <mxCell id="SszrpHAp8e7wIJKEq-xz-28" value="/ generation = route.query.gen" style="text;html=1;align=center;verticalAlign=middle;whiteSpace=wrap;rounded=0;;fontSize=12;" parent="1" vertex="1">
          <mxGeometry x="2353" y="515" width="168" height="31" as="geometry" />
        </mxCell>
        <mxCell id="SszrpHAp8e7wIJKEq-xz-29" value="" style="ellipse;whiteSpace=wrap;html=1;aspect=fixed;" parent="1" vertex="1">
          <mxGeometry x="2166" y="161" width="80" height="80" as="geometry" />
        </mxCell>
        <mxCell id="SszrpHAp8e7wIJKEq-xz-30" value="" style="endArrow=classic;html=1;rounded=0;fontSize=12;startSize=8;endSize=8;exitX=0;exitY=0;exitDx=0;exitDy=0;" parent="1" source="SszrpHAp8e7wIJKEq-xz-27" target="SszrpHAp8e7wIJKEq-xz-29" edge="1">
          <mxGeometry width="50" height="50" relative="1" as="geometry">
            <mxPoint x="2413" y="305" as="sourcePoint" />
            <mxPoint x="2466" y="243" as="targetPoint" />
          </mxGeometry>
        </mxCell>
        <mxCell id="SszrpHAp8e7wIJKEq-xz-31" value="/ limit = route.query.limit" style="text;html=1;align=center;verticalAlign=middle;whiteSpace=wrap;rounded=0;;fontSize=12;" parent="1" vertex="1">
          <mxGeometry x="2353" y="381" width="133" height="27" as="geometry" />
        </mxCell>
        <mxCell id="SszrpHAp8e7wIJKEq-xz-32" value="/ offset = route.query.offset" style="text;html=1;align=center;verticalAlign=middle;whiteSpace=wrap;rounded=0;;fontSize=12;" parent="1" vertex="1">
          <mxGeometry x="2279" y="240.5" width="156" height="18.5" as="geometry" />
        </mxCell>
        <mxCell id="SszrpHAp8e7wIJKEq-xz-33" value="" style="ellipse;whiteSpace=wrap;html=1;aspect=fixed;" parent="1" vertex="1">
          <mxGeometry x="1873" y="161" width="80" height="80" as="geometry" />
        </mxCell>
        <mxCell id="SszrpHAp8e7wIJKEq-xz-34" value="" style="endArrow=classic;html=1;rounded=0;fontSize=12;startSize=8;endSize=8;exitX=0;exitY=0.5;exitDx=0;exitDy=0;entryX=1;entryY=0.5;entryDx=0;entryDy=0;" parent="1" source="SszrpHAp8e7wIJKEq-xz-29" target="SszrpHAp8e7wIJKEq-xz-33" edge="1">
          <mxGeometry width="50" height="50" relative="1" as="geometry">
            <mxPoint x="1977.9957287525378" y="133.99572875253787" as="sourcePoint" />
            <mxPoint x="2256.5642712474623" y="141.56427124746213" as="targetPoint" />
          </mxGeometry>
        </mxCell>
        <mxCell id="SszrpHAp8e7wIJKEq-xz-36" value="" style="endArrow=classic;html=1;rounded=0;fontSize=12;startSize=8;endSize=8;exitX=0.013;exitY=0.688;exitDx=0;exitDy=0;entryX=0.5;entryY=0;entryDx=0;entryDy=0;exitPerimeter=0;" parent="1" source="SszrpHAp8e7wIJKEq-xz-33" target="SszrpHAp8e7wIJKEq-xz-4" edge="1">
          <mxGeometry width="50" height="50" relative="1" as="geometry">
            <mxPoint x="2213" y="91" as="sourcePoint" />
            <mxPoint x="2228" y="-2" as="targetPoint" />
          </mxGeometry>
        </mxCell>
        <mxCell id="SszrpHAp8e7wIJKEq-xz-37" value="/ d = getPokemons(generation, type1, type2, limit, offset)" style="text;html=1;align=center;verticalAlign=middle;whiteSpace=wrap;rounded=0;;fontSize=12;" parent="1" vertex="1">
          <mxGeometry x="1930" y="144" width="263" height="31" as="geometry" />
        </mxCell>
        <mxCell id="SszrpHAp8e7wIJKEq-xz-38" value="" style="endArrow=classic;html=1;rounded=0;entryX=0.5;entryY=1;entryDx=0;entryDy=0;exitX=0.5;exitY=0;exitDx=0;exitDy=0;" parent="1" source="SszrpHAp8e7wIJKEq-xz-21" target="SszrpHAp8e7wIJKEq-xz-25" edge="1">
          <mxGeometry width="50" height="50" relative="1" as="geometry">
            <mxPoint x="2446" y="452" as="sourcePoint" />
            <mxPoint x="2496" y="402" as="targetPoint" />
          </mxGeometry>
        </mxCell>
        <mxCell id="SszrpHAp8e7wIJKEq-xz-40" value="/ cli!send(200, d)" style="text;html=1;align=center;verticalAlign=middle;whiteSpace=wrap;rounded=0;" parent="1" vertex="1">
          <mxGeometry x="1705" y="213" width="93" height="30" as="geometry" />
        </mxCell>
        <mxCell id="Jfi4TRc7adJfluiY2CLe-1" value="" style="ellipse;whiteSpace=wrap;html=1;aspect=fixed;" parent="1" vertex="1">
          <mxGeometry x="2699" y="224" width="80" height="80" as="geometry" />
        </mxCell>
        <mxCell id="Jfi4TRc7adJfluiY2CLe-2" value="" style="endArrow=classic;html=1;rounded=0;entryX=1;entryY=0;entryDx=0;entryDy=0;" parent="1" target="qsUu8v3cOheBCzqR9-fN-3" edge="1">
          <mxGeometry width="50" height="50" relative="1" as="geometry">
            <mxPoint x="3173.5" y="154.5" as="sourcePoint" />
            <mxPoint x="2763" y="239" as="targetPoint" />
          </mxGeometry>
        </mxCell>
        <mxCell id="Jfi4TRc7adJfluiY2CLe-4" value="" style="endArrow=classic;html=1;rounded=0;entryX=0;entryY=0;entryDx=0;entryDy=0;exitX=1;exitY=0;exitDx=0;exitDy=0;" parent="1" source="Jfi4TRc7adJfluiY2CLe-1" target="qsUu8v3cOheBCzqR9-fN-3" edge="1">
          <mxGeometry width="50" height="50" relative="1" as="geometry">
            <mxPoint x="2940" y="316" as="sourcePoint" />
            <mxPoint x="2938.0000000000255" y="264" as="targetPoint" />
            <Array as="points">
              <mxPoint x="2902.5" y="190.5" />
            </Array>
          </mxGeometry>
        </mxCell>
        <mxCell id="qsUu8v3cOheBCzqR9-fN-2" value="[response.code == 200] / setPkms(response.body)" style="text;html=1;align=center;verticalAlign=middle;whiteSpace=wrap;rounded=0;" vertex="1" parent="1">
          <mxGeometry x="2819.5" y="143.5" width="162.5" height="30" as="geometry" />
        </mxCell>
        <mxCell id="qsUu8v3cOheBCzqR9-fN-3" value="" style="ellipse;whiteSpace=wrap;html=1;aspect=fixed;gradientColor=none;strokeColor=default;" vertex="1" parent="1">
          <mxGeometry x="3031.5" y="224" width="80" height="80" as="geometry" />
        </mxCell>
        <mxCell id="qsUu8v3cOheBCzqR9-fN-8" value="" style="ellipse;whiteSpace=wrap;html=1;aspect=fixed;" vertex="1" parent="1">
          <mxGeometry x="3165.5" y="411.5" width="80" height="80" as="geometry" />
        </mxCell>
        <mxCell id="qsUu8v3cOheBCzqR9-fN-9" value="" style="endArrow=classic;html=1;rounded=0;entryX=0.5;entryY=0;entryDx=0;entryDy=0;exitX=1;exitY=1;exitDx=0;exitDy=0;" edge="1" parent="1" source="qsUu8v3cOheBCzqR9-fN-3" target="qsUu8v3cOheBCzqR9-fN-8">
          <mxGeometry width="50" height="50" relative="1" as="geometry">
            <mxPoint x="3171.5" y="391.5" as="sourcePoint" />
            <mxPoint x="3257.5" y="390.5" as="targetPoint" />
          </mxGeometry>
        </mxCell>
        <mxCell id="qsUu8v3cOheBCzqR9-fN-11" value="[hasMore == true] / generation = getGeneration()" style="text;html=1;align=center;verticalAlign=middle;whiteSpace=wrap;rounded=0;" vertex="1" parent="1">
          <mxGeometry x="3141.5" y="315.5" width="291" height="30" as="geometry" />
        </mxCell>
        <mxCell id="qsUu8v3cOheBCzqR9-fN-13" value="" style="ellipse;whiteSpace=wrap;html=1;aspect=fixed;" vertex="1" parent="1">
          <mxGeometry x="3165.5" y="551.5" width="80" height="80" as="geometry" />
        </mxCell>
        <mxCell id="qsUu8v3cOheBCzqR9-fN-14" value="" style="endArrow=classic;html=1;rounded=0;entryX=0.5;entryY=0;entryDx=0;entryDy=0;exitX=0.5;exitY=1;exitDx=0;exitDy=0;" edge="1" parent="1" source="qsUu8v3cOheBCzqR9-fN-8" target="qsUu8v3cOheBCzqR9-fN-13">
          <mxGeometry width="50" height="50" relative="1" as="geometry">
            <mxPoint x="3178.5" y="547.5" as="sourcePoint" />
            <mxPoint x="3228.5" y="497.5" as="targetPoint" />
          </mxGeometry>
        </mxCell>
        <mxCell id="qsUu8v3cOheBCzqR9-fN-15" value="/ type1 = getType1()" style="text;html=1;align=center;verticalAlign=middle;whiteSpace=wrap;rounded=0;" vertex="1" parent="1">
          <mxGeometry x="3213.5" y="506.5" width="119" height="30" as="geometry" />
        </mxCell>
        <mxCell id="qsUu8v3cOheBCzqR9-fN-20" value="[type1 == null] / type2 = null" style="text;html=1;align=center;verticalAlign=middle;whiteSpace=wrap;rounded=0;" vertex="1" parent="1">
          <mxGeometry x="3003.5" y="646.5" width="156" height="30" as="geometry" />
        </mxCell>
        <mxCell id="qsUu8v3cOheBCzqR9-fN-21" value="[type1 != null] / type2 = getType2()" style="text;html=1;align=center;verticalAlign=middle;whiteSpace=wrap;rounded=0;" vertex="1" parent="1">
          <mxGeometry x="2987.5" y="513.5" width="188" height="30" as="geometry" />
        </mxCell>
        <mxCell id="qsUu8v3cOheBCzqR9-fN-22" value="" style="ellipse;whiteSpace=wrap;html=1;aspect=fixed;" vertex="1" parent="1">
          <mxGeometry x="2917.5" y="551.5" width="80" height="80" as="geometry" />
        </mxCell>
        <mxCell id="qsUu8v3cOheBCzqR9-fN-23" value="" style="ellipse;whiteSpace=wrap;html=1;aspect=fixed;" vertex="1" parent="1">
          <mxGeometry x="2699.5" y="551.5" width="80" height="80" as="geometry" />
        </mxCell>
        <mxCell id="qsUu8v3cOheBCzqR9-fN-24" value="" style="endArrow=classic;html=1;rounded=0;entryX=1;entryY=0;entryDx=0;entryDy=0;exitX=0;exitY=0;exitDx=0;exitDy=0;" edge="1" parent="1" source="qsUu8v3cOheBCzqR9-fN-13" target="qsUu8v3cOheBCzqR9-fN-22">
          <mxGeometry width="50" height="50" relative="1" as="geometry">
            <mxPoint x="3188.5" y="611.5" as="sourcePoint" />
            <mxPoint x="3238.5" y="561.5" as="targetPoint" />
            <Array as="points">
              <mxPoint x="3073.5" y="549.5" />
            </Array>
          </mxGeometry>
        </mxCell>
        <mxCell id="qsUu8v3cOheBCzqR9-fN-25" value="" style="endArrow=classic;html=1;rounded=0;entryX=1;entryY=1;entryDx=0;entryDy=0;exitX=0;exitY=1;exitDx=0;exitDy=0;" edge="1" parent="1" source="qsUu8v3cOheBCzqR9-fN-13" target="qsUu8v3cOheBCzqR9-fN-22">
          <mxGeometry width="50" height="50" relative="1" as="geometry">
            <mxPoint x="3188.5" y="611.5" as="sourcePoint" />
            <mxPoint x="3238.5" y="561.5" as="targetPoint" />
            <Array as="points">
              <mxPoint x="3081.5" y="633.5" />
            </Array>
          </mxGeometry>
        </mxCell>
        <mxCell id="qsUu8v3cOheBCzqR9-fN-27" value="" style="endArrow=classic;html=1;rounded=0;entryX=1;entryY=0.5;entryDx=0;entryDy=0;exitX=0;exitY=0.5;exitDx=0;exitDy=0;" edge="1" parent="1" source="qsUu8v3cOheBCzqR9-fN-22" target="qsUu8v3cOheBCzqR9-fN-23">
          <mxGeometry width="50" height="50" relative="1" as="geometry">
            <mxPoint x="2931.5" y="611.5" as="sourcePoint" />
            <mxPoint x="2981.5" y="561.5" as="targetPoint" />
          </mxGeometry>
        </mxCell>
        <mxCell id="qsUu8v3cOheBCzqR9-fN-29" value="/ offset = calculateOffset(page)" style="text;html=1;align=center;verticalAlign=middle;whiteSpace=wrap;rounded=0;" vertex="1" parent="1">
          <mxGeometry x="2779.5" y="604.5" width="138" height="30" as="geometry" />
        </mxCell>
        <mxCell id="qsUu8v3cOheBCzqR9-fN-30" value="" style="ellipse;whiteSpace=wrap;html=1;aspect=fixed;" vertex="1" parent="1">
          <mxGeometry x="2699.5" y="415.5" width="80" height="80" as="geometry" />
        </mxCell>
        <mxCell id="qsUu8v3cOheBCzqR9-fN-31" value="" style="endArrow=classic;html=1;rounded=0;entryX=0.5;entryY=1;entryDx=0;entryDy=0;exitX=0.5;exitY=0;exitDx=0;exitDy=0;" edge="1" parent="1" source="qsUu8v3cOheBCzqR9-fN-23" target="qsUu8v3cOheBCzqR9-fN-30">
          <mxGeometry width="50" height="50" relative="1" as="geometry">
            <mxPoint x="2931.5" y="611.5" as="sourcePoint" />
            <mxPoint x="2981.5" y="561.5" as="targetPoint" />
          </mxGeometry>
        </mxCell>
        <mxCell id="qsUu8v3cOheBCzqR9-fN-32" value="/ limit = ELEMENT_PER_PAGE" style="text;html=1;align=center;verticalAlign=middle;whiteSpace=wrap;rounded=0;" vertex="1" parent="1">
          <mxGeometry x="2747.5" y="508.5" width="135" height="30" as="geometry" />
        </mxCell>
        <mxCell id="qsUu8v3cOheBCzqR9-fN-33" value="" style="endArrow=classic;html=1;rounded=0;entryX=0.5;entryY=1;entryDx=0;entryDy=0;exitX=0.5;exitY=0;exitDx=0;exitDy=0;" edge="1" parent="1" source="qsUu8v3cOheBCzqR9-fN-30" target="Jfi4TRc7adJfluiY2CLe-1">
          <mxGeometry width="50" height="50" relative="1" as="geometry">
            <mxPoint x="2931.5" y="611.5" as="sourcePoint" />
            <mxPoint x="2981.5" y="561.5" as="targetPoint" />
          </mxGeometry>
        </mxCell>
        <mxCell id="qsUu8v3cOheBCzqR9-fN-34" value="/ server?response = getPkms(generation, type1, type2, limit, offset)" style="text;html=1;align=center;verticalAlign=middle;whiteSpace=wrap;rounded=0;" vertex="1" parent="1">
          <mxGeometry x="2743" y="357.5" width="239" height="30" as="geometry" />
        </mxCell>
        <mxCell id="qsUu8v3cOheBCzqR9-fN-36" value="" style="endArrow=classic;html=1;rounded=0;entryX=0;entryY=0.5;entryDx=0;entryDy=0;exitX=1;exitY=0.5;exitDx=0;exitDy=0;" edge="1" parent="1" source="Jfi4TRc7adJfluiY2CLe-1" target="qsUu8v3cOheBCzqR9-fN-3">
          <mxGeometry width="50" height="50" relative="1" as="geometry">
            <mxPoint x="3060.5" y="611.5" as="sourcePoint" />
            <mxPoint x="3110.5" y="561.5" as="targetPoint" />
          </mxGeometry>
        </mxCell>
        <mxCell id="qsUu8v3cOheBCzqR9-fN-37" value="[response.code != 200] /" style="text;html=1;align=center;verticalAlign=middle;whiteSpace=wrap;rounded=0;" vertex="1" parent="1">
          <mxGeometry x="2831.5" y="267.5" width="146.75" height="30" as="geometry" />
        </mxCell>
        <mxCell id="qsUu8v3cOheBCzqR9-fN-38" value="" style="ellipse;whiteSpace=wrap;html=1;aspect=fixed;" vertex="1" parent="1">
          <mxGeometry x="3036.5" y="229" width="70" height="70" as="geometry" />
        </mxCell>
      </root>
    </mxGraphModel>
  </diagram>
</mxfile>
